<!--?xml version="1.0" standalone="no"?-->
              <svg id="sw-js-blob-svg" viewBox="0 0 100 100" xmlns="http://www.w3.org/2000/svg" version="1.1">
                    <defs> 
                        <linearGradient id="sw-gradient" x1="0" x2="1" y1="1" y2="0">
                            <stop id="stop1" stop-color="rgba(6, 182, 212, 1)" offset="0%"></stop>
                            <stop id="stop2" stop-color="rgba(14, 116, 144, 1)" offset="100%"></stop>
                        </linearGradient>
                    </defs>
                <path fill="url(#sw-gradient)" d="M23,-25.2C31,-20.8,39.4,-14.6,42.2,-6.4C44.9,1.9,42,12.2,36.5,20.5C31,28.8,23,35,13.9,38.5C4.7,42,-5.5,42.7,-11.8,38C-18,33.3,-20.2,23.1,-22.6,15C-25,6.8,-27.7,0.7,-28.4,-6.7C-29.1,-14.2,-27.9,-23,-22.8,-28C-17.8,-33,-8.9,-34.1,-0.7,-33.3C7.5,-32.5,15.1,-29.7,23,-25.2Z" width="100%" height="100%" transform="translate(50 50)" stroke-width="0" style="transition: all 0.3s ease 0s;" stroke="url(#sw-gradient)"></path>
              </svg>