<!--?xml version="1.0" standalone="no"?-->
              <svg id="sw-js-blob-svg" viewBox="0 0 100 100" xmlns="http://www.w3.org/2000/svg" version="1.1">
                    <defs> 
                        <linearGradient id="sw-gradient" x1="0" x2="1" y1="1" y2="0">
                            <stop id="stop1" stop-color="rgba(6, 182, 212, 1)" offset="0%"></stop>
                            <stop id="stop2" stop-color="rgba(14, 116, 144, 1)" offset="100%"></stop>
                        </linearGradient>
                    </defs>
                <path fill="url(#sw-gradient)" d="M23.6,-28.4C30.7,-22.2,36.7,-14.9,38.8,-6.4C40.8,2.1,39,11.8,33.7,18.2C28.5,24.7,19.9,27.9,11.9,29.4C3.9,30.9,-3.6,30.6,-12.1,29.2C-20.6,27.8,-30.1,25.4,-36.3,18.9C-42.4,12.5,-45.1,2,-42,-6C-38.9,-14,-30,-19.6,-22,-25.7C-14.1,-31.8,-7,-38.4,0.6,-39.1C8.3,-39.9,16.5,-34.7,23.6,-28.4Z" width="100%" height="100%" transform="translate(50 50)" stroke-width="0" style="transition: all 0.3s ease 0s;" stroke="url(#sw-gradient)"></path>
              </svg>