<!--?xml version="1.0" standalone="no"?-->
              <svg id="sw-js-blob-svg" viewBox="0 0 100 100" xmlns="http://www.w3.org/2000/svg" version="1.1">
                    <defs> 
                        <linearGradient id="sw-gradient" x1="0" x2="1" y1="1" y2="0">
                            <stop id="stop1" stop-color="rgba(6, 182, 212, 1)" offset="0%"></stop>
                            <stop id="stop2" stop-color="rgba(14, 116, 144, 1)" offset="100%"></stop>
                        </linearGradient>
                    </defs>
                <path fill="url(#sw-gradient)" d="M13.3,-15.6C17.2,-12.6,20.1,-8.3,21.6,-3.3C23.1,1.7,23.1,7.5,21,13.1C18.9,18.6,14.8,23.9,9.3,26.2C3.8,28.5,-3,27.8,-9.2,25.5C-15.4,23.2,-20.9,19.2,-25.1,13.7C-29.3,8.1,-32.2,1,-32.4,-7.1C-32.6,-15.2,-30.2,-24.2,-24.4,-26.8C-18.6,-29.5,-9.3,-25.8,-2.3,-23.1C4.7,-20.4,9.5,-18.7,13.3,-15.6Z" width="100%" height="100%" transform="translate(50 50)" stroke-width="0" style="transition: all 0.3s ease 0s;" stroke="url(#sw-gradient)"></path>
              </svg>