<!--?xml version="1.0" standalone="no"?-->
              <svg id="sw-js-blob-svg" viewBox="0 0 100 100" xmlns="http://www.w3.org/2000/svg" version="1.1">
                    <defs> 
                        <linearGradient id="sw-gradient" x1="0" x2="1" y1="1" y2="0">
                            <stop id="stop1" stop-color="rgba(6, 182, 212, 1)" offset="0%"></stop>
                            <stop id="stop2" stop-color="rgba(14, 116, 144, 1)" offset="100%"></stop>
                        </linearGradient>
                    </defs>
                <path fill="url(#sw-gradient)" d="M17.9,-22.7C23.5,-16.6,28.5,-11.3,30.9,-4.4C33.4,2.5,33.3,10.8,29.6,17.1C26,23.4,18.8,27.6,11.4,29.6C3.9,31.6,-3.7,31.3,-10.9,29.1C-18,26.8,-24.8,22.5,-27.1,16.6C-29.4,10.6,-27.3,3.1,-25.7,-4.2C-24.1,-11.6,-22.9,-18.7,-18.7,-25C-14.5,-31.3,-7.2,-36.8,-0.5,-36.2C6.1,-35.5,12.3,-28.8,17.9,-22.7Z" width="100%" height="100%" transform="translate(50 50)" stroke-width="0" style="transition: all 0.3s ease 0s;" stroke="url(#sw-gradient)"></path>
              </svg>